<mxfile host="app.diagrams.net" agent="Mozilla/5.0 (Windows NT 10.0; Win64; x64) AppleWebKit/537.36 (KHTML, like Gecko) Chrome/128.0.0.0 Safari/537.36" version="24.7.7">
  <diagram name="Page-1" id="PyA85rhxdtqOHSqzkCa3">
    <mxGraphModel dx="2084" dy="712" grid="1" gridSize="10" guides="1" tooltips="1" connect="1" arrows="1" fold="1" page="1" pageScale="1" pageWidth="850" pageHeight="1100" math="0" shadow="0">
      <root>
        <mxCell id="0" />
        <mxCell id="1" parent="0" />
        <mxCell id="iRxXZpFTQTzs2WsgbCxk-33" value="" style="endArrow=none;html=1;rounded=0;entryX=0;entryY=0.5;entryDx=0;entryDy=0;" parent="1" edge="1">
          <mxGeometry width="50" height="50" relative="1" as="geometry">
            <mxPoint x="340" y="80" as="sourcePoint" />
            <mxPoint x="340" y="80" as="targetPoint" />
          </mxGeometry>
        </mxCell>
        <mxCell id="gBYWCbzAQ4PHDp4MFK2o-1" value="" style="rounded=0;whiteSpace=wrap;html=1;" parent="1" vertex="1">
          <mxGeometry x="80" y="79.5" width="210" height="100" as="geometry" />
        </mxCell>
        <mxCell id="gBYWCbzAQ4PHDp4MFK2o-2" value="&lt;font style=&quot;font-size: 18px;&quot;&gt;Executive&lt;/font&gt;" style="text;html=1;align=center;verticalAlign=middle;whiteSpace=wrap;rounded=0;" parent="1" vertex="1">
          <mxGeometry x="290" y="79.5" width="110" height="43" as="geometry" />
        </mxCell>
        <mxCell id="gBYWCbzAQ4PHDp4MFK2o-3" value="Program" style="rounded=1;whiteSpace=wrap;html=1;" parent="1" vertex="1">
          <mxGeometry x="140" y="110.5" width="90" height="39" as="geometry" />
        </mxCell>
        <mxCell id="uuBq5lwNjAVm_NzWjJLm-3" value="" style="rounded=0;whiteSpace=wrap;html=1;" vertex="1" parent="1">
          <mxGeometry x="-200" y="270" width="170" height="110" as="geometry" />
        </mxCell>
        <mxCell id="uuBq5lwNjAVm_NzWjJLm-4" value="&lt;font size=&quot;1&quot; style=&quot;&quot;&gt;&lt;b style=&quot;font-size: 15px;&quot;&gt;Flyweight Factory&lt;/b&gt;&lt;/font&gt;" style="text;html=1;align=center;verticalAlign=middle;whiteSpace=wrap;rounded=0;" vertex="1" parent="1">
          <mxGeometry x="-30" y="270" width="110" height="43" as="geometry" />
        </mxCell>
        <mxCell id="uuBq5lwNjAVm_NzWjJLm-5" value="CharacterFactory" style="rounded=1;whiteSpace=wrap;html=1;" vertex="1" parent="1">
          <mxGeometry x="-170" y="296.5" width="110" height="47" as="geometry" />
        </mxCell>
        <mxCell id="uuBq5lwNjAVm_NzWjJLm-6" value="" style="rounded=0;whiteSpace=wrap;html=1;" vertex="1" parent="1">
          <mxGeometry x="30" y="360" width="580" height="290" as="geometry" />
        </mxCell>
        <mxCell id="uuBq5lwNjAVm_NzWjJLm-7" value="&lt;font size=&quot;1&quot; style=&quot;&quot;&gt;&lt;b style=&quot;font-size: 15px;&quot;&gt;Flyweights&lt;/b&gt;&lt;/font&gt;" style="text;html=1;align=center;verticalAlign=middle;whiteSpace=wrap;rounded=0;" vertex="1" parent="1">
          <mxGeometry x="609" y="360" width="110" height="43" as="geometry" />
        </mxCell>
        <mxCell id="uuBq5lwNjAVm_NzWjJLm-8" value="Character" style="rounded=1;whiteSpace=wrap;html=1;" vertex="1" parent="1">
          <mxGeometry x="340" y="440" width="100" height="40" as="geometry" />
        </mxCell>
        <mxCell id="uuBq5lwNjAVm_NzWjJLm-9" value="ICharacter" style="ellipse;whiteSpace=wrap;html=1;" vertex="1" parent="1">
          <mxGeometry x="340" y="380" width="100" height="40" as="geometry" />
        </mxCell>
        <mxCell id="uuBq5lwNjAVm_NzWjJLm-11" value="HeroCharacter" style="rounded=1;whiteSpace=wrap;html=1;" vertex="1" parent="1">
          <mxGeometry x="160" y="520" width="100" height="40" as="geometry" />
        </mxCell>
        <mxCell id="uuBq5lwNjAVm_NzWjJLm-12" value="GruntEnemy" style="rounded=1;whiteSpace=wrap;html=1;" vertex="1" parent="1">
          <mxGeometry x="500" y="520" width="100" height="40" as="geometry" />
        </mxCell>
        <mxCell id="uuBq5lwNjAVm_NzWjJLm-13" value="EliteEnemy" style="rounded=1;whiteSpace=wrap;html=1;" vertex="1" parent="1">
          <mxGeometry x="385" y="520" width="100" height="40" as="geometry" />
        </mxCell>
        <mxCell id="uuBq5lwNjAVm_NzWjJLm-14" value="BossEnemy" style="rounded=1;whiteSpace=wrap;html=1;" vertex="1" parent="1">
          <mxGeometry x="270" y="520" width="100" height="40" as="geometry" />
        </mxCell>
        <mxCell id="uuBq5lwNjAVm_NzWjJLm-44" style="edgeStyle=orthogonalEdgeStyle;rounded=0;orthogonalLoop=1;jettySize=auto;html=1;exitX=0.5;exitY=1;exitDx=0;exitDy=0;entryX=0.5;entryY=1;entryDx=0;entryDy=0;" edge="1" parent="1" source="uuBq5lwNjAVm_NzWjJLm-15" target="uuBq5lwNjAVm_NzWjJLm-5">
          <mxGeometry relative="1" as="geometry" />
        </mxCell>
        <mxCell id="uuBq5lwNjAVm_NzWjJLm-15" value="CharacterState" style="rounded=1;whiteSpace=wrap;html=1;" vertex="1" parent="1">
          <mxGeometry x="70" y="430" width="100" height="40" as="geometry" />
        </mxCell>
        <mxCell id="uuBq5lwNjAVm_NzWjJLm-17" value="" style="rounded=0;whiteSpace=wrap;html=1;" vertex="1" parent="1">
          <mxGeometry x="469" y="79.5" width="250" height="120" as="geometry" />
        </mxCell>
        <mxCell id="uuBq5lwNjAVm_NzWjJLm-18" value="&lt;font size=&quot;1&quot; style=&quot;&quot;&gt;&lt;b style=&quot;font-size: 15px;&quot;&gt;GameTest&lt;/b&gt;&lt;/font&gt;" style="text;html=1;align=center;verticalAlign=middle;whiteSpace=wrap;rounded=0;" vertex="1" parent="1">
          <mxGeometry x="719" y="79.5" width="110" height="43" as="geometry" />
        </mxCell>
        <mxCell id="uuBq5lwNjAVm_NzWjJLm-19" value="UnitTest" style="rounded=1;whiteSpace=wrap;html=1;" vertex="1" parent="1">
          <mxGeometry x="539" y="116" width="110" height="47" as="geometry" />
        </mxCell>
        <mxCell id="uuBq5lwNjAVm_NzWjJLm-20" value="" style="endArrow=none;html=1;rounded=0;entryX=0.5;entryY=1;entryDx=0;entryDy=0;exitX=1;exitY=0.5;exitDx=0;exitDy=0;" edge="1" parent="1" source="uuBq5lwNjAVm_NzWjJLm-35" target="uuBq5lwNjAVm_NzWjJLm-9">
          <mxGeometry width="50" height="50" relative="1" as="geometry">
            <mxPoint x="400" y="660" as="sourcePoint" />
            <mxPoint x="450" y="610" as="targetPoint" />
          </mxGeometry>
        </mxCell>
        <mxCell id="uuBq5lwNjAVm_NzWjJLm-21" value="" style="endArrow=none;html=1;rounded=0;entryX=0.5;entryY=1;entryDx=0;entryDy=0;exitX=1;exitY=0.5;exitDx=0;exitDy=0;" edge="1" parent="1" source="uuBq5lwNjAVm_NzWjJLm-25" target="uuBq5lwNjAVm_NzWjJLm-8">
          <mxGeometry width="50" height="50" relative="1" as="geometry">
            <mxPoint x="400" y="660" as="sourcePoint" />
            <mxPoint x="450" y="610" as="targetPoint" />
          </mxGeometry>
        </mxCell>
        <mxCell id="uuBq5lwNjAVm_NzWjJLm-22" value="" style="endArrow=none;html=1;rounded=0;entryX=0.5;entryY=1;entryDx=0;entryDy=0;exitX=1;exitY=0.5;exitDx=0;exitDy=0;" edge="1" parent="1" source="uuBq5lwNjAVm_NzWjJLm-28" target="uuBq5lwNjAVm_NzWjJLm-8">
          <mxGeometry width="50" height="50" relative="1" as="geometry">
            <mxPoint x="400" y="660" as="sourcePoint" />
            <mxPoint x="450" y="610" as="targetPoint" />
          </mxGeometry>
        </mxCell>
        <mxCell id="uuBq5lwNjAVm_NzWjJLm-23" value="" style="endArrow=none;html=1;rounded=0;entryX=0.5;entryY=1;entryDx=0;entryDy=0;exitX=1;exitY=0.5;exitDx=0;exitDy=0;" edge="1" parent="1" source="uuBq5lwNjAVm_NzWjJLm-32" target="uuBq5lwNjAVm_NzWjJLm-8">
          <mxGeometry width="50" height="50" relative="1" as="geometry">
            <mxPoint x="400" y="660" as="sourcePoint" />
            <mxPoint x="450" y="610" as="targetPoint" />
          </mxGeometry>
        </mxCell>
        <mxCell id="uuBq5lwNjAVm_NzWjJLm-24" value="" style="endArrow=none;html=1;rounded=0;entryX=0.5;entryY=1;entryDx=0;entryDy=0;exitX=1;exitY=0.5;exitDx=0;exitDy=0;" edge="1" parent="1" source="uuBq5lwNjAVm_NzWjJLm-36" target="uuBq5lwNjAVm_NzWjJLm-8">
          <mxGeometry width="50" height="50" relative="1" as="geometry">
            <mxPoint x="400" y="660" as="sourcePoint" />
            <mxPoint x="450" y="610" as="targetPoint" />
          </mxGeometry>
        </mxCell>
        <mxCell id="uuBq5lwNjAVm_NzWjJLm-27" value="" style="endArrow=none;html=1;rounded=0;entryX=0;entryY=0.5;entryDx=0;entryDy=0;exitX=0.5;exitY=0;exitDx=0;exitDy=0;" edge="1" parent="1" source="uuBq5lwNjAVm_NzWjJLm-11" target="uuBq5lwNjAVm_NzWjJLm-25">
          <mxGeometry width="50" height="50" relative="1" as="geometry">
            <mxPoint x="210" y="520" as="sourcePoint" />
            <mxPoint x="390" y="480" as="targetPoint" />
          </mxGeometry>
        </mxCell>
        <mxCell id="uuBq5lwNjAVm_NzWjJLm-25" value="" style="triangle;whiteSpace=wrap;html=1;" vertex="1" parent="1">
          <mxGeometry x="290" y="490" width="12" height="20" as="geometry" />
        </mxCell>
        <mxCell id="uuBq5lwNjAVm_NzWjJLm-29" value="" style="endArrow=none;html=1;rounded=0;entryX=0;entryY=0.5;entryDx=0;entryDy=0;exitX=0.5;exitY=0;exitDx=0;exitDy=0;" edge="1" parent="1" source="uuBq5lwNjAVm_NzWjJLm-14" target="uuBq5lwNjAVm_NzWjJLm-28">
          <mxGeometry width="50" height="50" relative="1" as="geometry">
            <mxPoint x="320" y="520" as="sourcePoint" />
            <mxPoint x="390" y="480" as="targetPoint" />
          </mxGeometry>
        </mxCell>
        <mxCell id="uuBq5lwNjAVm_NzWjJLm-28" value="" style="triangle;whiteSpace=wrap;html=1;rotation=-45;" vertex="1" parent="1">
          <mxGeometry x="340" y="495" width="12" height="20" as="geometry" />
        </mxCell>
        <mxCell id="uuBq5lwNjAVm_NzWjJLm-31" value="EliteEnemy" style="rounded=1;whiteSpace=wrap;html=1;" vertex="1" parent="1">
          <mxGeometry x="385" y="520" width="100" height="40" as="geometry" />
        </mxCell>
        <mxCell id="uuBq5lwNjAVm_NzWjJLm-33" value="" style="endArrow=none;html=1;rounded=0;exitX=0.5;exitY=0;exitDx=0;exitDy=0;entryX=0;entryY=0.5;entryDx=0;entryDy=0;" edge="1" parent="1" source="uuBq5lwNjAVm_NzWjJLm-13" target="uuBq5lwNjAVm_NzWjJLm-32">
          <mxGeometry width="50" height="50" relative="1" as="geometry">
            <mxPoint x="435" y="520" as="sourcePoint" />
            <mxPoint x="430" y="510" as="targetPoint" />
          </mxGeometry>
        </mxCell>
        <mxCell id="uuBq5lwNjAVm_NzWjJLm-32" value="" style="triangle;whiteSpace=wrap;html=1;rotation=-115;" vertex="1" parent="1">
          <mxGeometry x="415" y="495" width="10" height="20" as="geometry" />
        </mxCell>
        <mxCell id="uuBq5lwNjAVm_NzWjJLm-38" value="" style="endArrow=none;html=1;rounded=0;entryX=0;entryY=0.5;entryDx=0;entryDy=0;exitX=0.5;exitY=0;exitDx=0;exitDy=0;" edge="1" parent="1" source="uuBq5lwNjAVm_NzWjJLm-12" target="uuBq5lwNjAVm_NzWjJLm-36">
          <mxGeometry width="50" height="50" relative="1" as="geometry">
            <mxPoint x="550" y="520" as="sourcePoint" />
            <mxPoint x="390" y="480" as="targetPoint" />
          </mxGeometry>
        </mxCell>
        <mxCell id="uuBq5lwNjAVm_NzWjJLm-36" value="" style="triangle;whiteSpace=wrap;html=1;rotation=-165;" vertex="1" parent="1">
          <mxGeometry x="485" y="495" width="15" height="20" as="geometry" />
        </mxCell>
        <mxCell id="uuBq5lwNjAVm_NzWjJLm-40" value="" style="endArrow=none;html=1;rounded=0;exitX=0.5;exitY=0;exitDx=0;exitDy=0;entryX=0;entryY=0.5;entryDx=0;entryDy=0;" edge="1" parent="1" source="uuBq5lwNjAVm_NzWjJLm-8" target="uuBq5lwNjAVm_NzWjJLm-35">
          <mxGeometry width="50" height="50" relative="1" as="geometry">
            <mxPoint x="390" y="440" as="sourcePoint" />
            <mxPoint x="390" y="420" as="targetPoint" />
          </mxGeometry>
        </mxCell>
        <mxCell id="uuBq5lwNjAVm_NzWjJLm-35" value="" style="triangle;whiteSpace=wrap;html=1;rotation=-90;" vertex="1" parent="1">
          <mxGeometry x="385" y="420" width="10" height="20" as="geometry" />
        </mxCell>
        <mxCell id="uuBq5lwNjAVm_NzWjJLm-45" value="" style="endArrow=none;html=1;rounded=0;exitX=1;exitY=0.5;exitDx=0;exitDy=0;entryX=0;entryY=0.5;entryDx=0;entryDy=0;" edge="1" parent="1" source="uuBq5lwNjAVm_NzWjJLm-46" target="uuBq5lwNjAVm_NzWjJLm-8">
          <mxGeometry width="50" height="50" relative="1" as="geometry">
            <mxPoint x="330" y="440" as="sourcePoint" />
            <mxPoint x="380" y="390" as="targetPoint" />
          </mxGeometry>
        </mxCell>
        <mxCell id="uuBq5lwNjAVm_NzWjJLm-47" value="" style="endArrow=none;html=1;rounded=0;exitX=1;exitY=0.5;exitDx=0;exitDy=0;entryX=0;entryY=0.5;entryDx=0;entryDy=0;" edge="1" parent="1" source="uuBq5lwNjAVm_NzWjJLm-15" target="uuBq5lwNjAVm_NzWjJLm-46">
          <mxGeometry width="50" height="50" relative="1" as="geometry">
            <mxPoint x="170" y="450" as="sourcePoint" />
            <mxPoint x="340" y="460" as="targetPoint" />
          </mxGeometry>
        </mxCell>
        <mxCell id="uuBq5lwNjAVm_NzWjJLm-46" value="" style="rhombus;whiteSpace=wrap;html=1;" vertex="1" parent="1">
          <mxGeometry x="310" y="445" width="30" height="25" as="geometry" />
        </mxCell>
        <mxCell id="uuBq5lwNjAVm_NzWjJLm-48" value="" style="endArrow=none;html=1;rounded=0;exitX=0.5;exitY=0;exitDx=0;exitDy=0;entryX=0;entryY=0.5;entryDx=0;entryDy=0;" edge="1" parent="1" target="uuBq5lwNjAVm_NzWjJLm-49" source="uuBq5lwNjAVm_NzWjJLm-5">
          <mxGeometry width="50" height="50" relative="1" as="geometry">
            <mxPoint x="182" y="265" as="sourcePoint" />
            <mxPoint x="352" y="275" as="targetPoint" />
            <Array as="points">
              <mxPoint x="-115" y="230" />
              <mxPoint x="370" y="230" />
              <mxPoint x="370" y="140" />
            </Array>
          </mxGeometry>
        </mxCell>
        <mxCell id="uuBq5lwNjAVm_NzWjJLm-49" value="" style="rhombus;whiteSpace=wrap;html=1;" vertex="1" parent="1">
          <mxGeometry x="509" y="127" width="30" height="25" as="geometry" />
        </mxCell>
        <mxCell id="uuBq5lwNjAVm_NzWjJLm-50" value="" style="endArrow=none;html=1;rounded=0;exitX=0.5;exitY=0;exitDx=0;exitDy=0;entryX=0;entryY=0.5;entryDx=0;entryDy=0;" edge="1" parent="1" target="uuBq5lwNjAVm_NzWjJLm-51" source="uuBq5lwNjAVm_NzWjJLm-5">
          <mxGeometry width="50" height="50" relative="1" as="geometry">
            <mxPoint x="-160" y="154.5" as="sourcePoint" />
            <mxPoint x="10" y="164.5" as="targetPoint" />
            <Array as="points">
              <mxPoint x="-115" y="130" />
            </Array>
          </mxGeometry>
        </mxCell>
        <mxCell id="uuBq5lwNjAVm_NzWjJLm-51" value="" style="rhombus;whiteSpace=wrap;html=1;" vertex="1" parent="1">
          <mxGeometry x="110" y="117.5" width="30" height="25" as="geometry" />
        </mxCell>
        <mxCell id="uuBq5lwNjAVm_NzWjJLm-52" value="" style="endArrow=none;html=1;rounded=0;exitX=1;exitY=0.5;exitDx=0;exitDy=0;entryX=1;entryY=0.5;entryDx=0;entryDy=0;" edge="1" parent="1" target="uuBq5lwNjAVm_NzWjJLm-53" source="uuBq5lwNjAVm_NzWjJLm-8">
          <mxGeometry width="50" height="50" relative="1" as="geometry">
            <mxPoint x="35" y="312.5" as="sourcePoint" />
            <mxPoint x="205" y="322.5" as="targetPoint" />
            <Array as="points">
              <mxPoint x="520" y="460" />
              <mxPoint x="520" y="320" />
            </Array>
          </mxGeometry>
        </mxCell>
        <mxCell id="uuBq5lwNjAVm_NzWjJLm-53" value="" style="rhombus;whiteSpace=wrap;html=1;" vertex="1" parent="1">
          <mxGeometry x="-60" y="313" width="20" height="17" as="geometry" />
        </mxCell>
        <mxCell id="uuBq5lwNjAVm_NzWjJLm-55" value="" style="endArrow=none;html=1;rounded=0;exitX=0.5;exitY=1;exitDx=0;exitDy=0;entryX=0;entryY=0.5;entryDx=0;entryDy=0;" edge="1" parent="1" target="uuBq5lwNjAVm_NzWjJLm-56" source="uuBq5lwNjAVm_NzWjJLm-11">
          <mxGeometry width="50" height="50" relative="1" as="geometry">
            <mxPoint x="192" y="275" as="sourcePoint" />
            <mxPoint x="362" y="285" as="targetPoint" />
            <Array as="points">
              <mxPoint x="210" y="610" />
              <mxPoint x="-250" y="620" />
              <mxPoint x="-250" y="320" />
            </Array>
          </mxGeometry>
        </mxCell>
        <mxCell id="uuBq5lwNjAVm_NzWjJLm-56" value="" style="rhombus;whiteSpace=wrap;html=1;" vertex="1" parent="1">
          <mxGeometry x="-200" y="310" width="30" height="25" as="geometry" />
        </mxCell>
        <mxCell id="uuBq5lwNjAVm_NzWjJLm-57" value="" style="endArrow=none;html=1;rounded=0;entryX=0.5;entryY=1;entryDx=0;entryDy=0;exitX=0;exitY=0.5;exitDx=0;exitDy=0;" edge="1" parent="1" target="uuBq5lwNjAVm_NzWjJLm-58" source="uuBq5lwNjAVm_NzWjJLm-9">
          <mxGeometry width="50" height="50" relative="1" as="geometry">
            <mxPoint x="210" y="280" as="sourcePoint" />
            <mxPoint x="372" y="295" as="targetPoint" />
            <Array as="points">
              <mxPoint x="-85" y="410" />
            </Array>
          </mxGeometry>
        </mxCell>
        <mxCell id="uuBq5lwNjAVm_NzWjJLm-58" value="" style="rhombus;whiteSpace=wrap;html=1;fillColor=#000000;strokeColor=#000000;" vertex="1" parent="1">
          <mxGeometry x="-100" y="343.5" width="30" height="25" as="geometry" />
        </mxCell>
        <mxCell id="uuBq5lwNjAVm_NzWjJLm-59" value="" style="endArrow=none;html=1;rounded=0;exitX=0.5;exitY=0;exitDx=0;exitDy=0;entryX=0.5;entryY=1;entryDx=0;entryDy=0;" edge="1" parent="1" target="uuBq5lwNjAVm_NzWjJLm-60" source="uuBq5lwNjAVm_NzWjJLm-15">
          <mxGeometry width="50" height="50" relative="1" as="geometry">
            <mxPoint x="212" y="295" as="sourcePoint" />
            <mxPoint x="382" y="305" as="targetPoint" />
            <Array as="points">
              <mxPoint x="120" y="280" />
              <mxPoint x="175" y="280" />
            </Array>
          </mxGeometry>
        </mxCell>
        <mxCell id="uuBq5lwNjAVm_NzWjJLm-60" value="" style="rhombus;whiteSpace=wrap;html=1;" vertex="1" parent="1">
          <mxGeometry x="160" y="149.5" width="30" height="25" as="geometry" />
        </mxCell>
        <mxCell id="uuBq5lwNjAVm_NzWjJLm-61" value="" style="endArrow=none;html=1;rounded=0;entryX=0.5;entryY=1;entryDx=0;entryDy=0;" edge="1" parent="1" target="uuBq5lwNjAVm_NzWjJLm-62">
          <mxGeometry width="50" height="50" relative="1" as="geometry">
            <mxPoint x="170" y="280" as="sourcePoint" />
            <mxPoint x="590" y="190" as="targetPoint" />
            <Array as="points">
              <mxPoint x="600" y="270" />
            </Array>
          </mxGeometry>
        </mxCell>
        <mxCell id="uuBq5lwNjAVm_NzWjJLm-62" value="" style="rhombus;whiteSpace=wrap;html=1;" vertex="1" parent="1">
          <mxGeometry x="580" y="163" width="30" height="25" as="geometry" />
        </mxCell>
        <mxCell id="uuBq5lwNjAVm_NzWjJLm-63" value="" style="endArrow=none;html=1;rounded=0;exitX=0.5;exitY=0;exitDx=0;exitDy=0;entryX=0.5;entryY=1;entryDx=0;entryDy=0;" edge="1" parent="1" target="uuBq5lwNjAVm_NzWjJLm-64" source="uuBq5lwNjAVm_NzWjJLm-9">
          <mxGeometry width="50" height="50" relative="1" as="geometry">
            <mxPoint x="232" y="315" as="sourcePoint" />
            <mxPoint x="402" y="325" as="targetPoint" />
            <Array as="points">
              <mxPoint x="390" y="300" />
              <mxPoint x="220" y="300" />
            </Array>
          </mxGeometry>
        </mxCell>
        <mxCell id="uuBq5lwNjAVm_NzWjJLm-64" value="" style="rhombus;whiteSpace=wrap;html=1;" vertex="1" parent="1">
          <mxGeometry x="200" y="149.5" width="30" height="25" as="geometry" />
        </mxCell>
        <mxCell id="uuBq5lwNjAVm_NzWjJLm-65" value="" style="endArrow=none;html=1;rounded=0;exitX=0.5;exitY=1;exitDx=0;exitDy=0;" edge="1" parent="1" source="uuBq5lwNjAVm_NzWjJLm-14">
          <mxGeometry width="50" height="50" relative="1" as="geometry">
            <mxPoint x="330" y="440" as="sourcePoint" />
            <mxPoint x="210" y="610" as="targetPoint" />
            <Array as="points">
              <mxPoint x="320" y="610" />
            </Array>
          </mxGeometry>
        </mxCell>
        <mxCell id="uuBq5lwNjAVm_NzWjJLm-66" value="" style="endArrow=none;html=1;rounded=0;entryX=1;entryY=0.5;entryDx=0;entryDy=0;exitX=1;exitY=0.5;exitDx=0;exitDy=0;" edge="1" parent="1" source="uuBq5lwNjAVm_NzWjJLm-19" target="uuBq5lwNjAVm_NzWjJLm-9">
          <mxGeometry width="50" height="50" relative="1" as="geometry">
            <mxPoint x="330" y="440" as="sourcePoint" />
            <mxPoint x="380" y="390" as="targetPoint" />
            <Array as="points">
              <mxPoint x="790" y="140" />
              <mxPoint x="790" y="280" />
              <mxPoint x="650" y="280" />
              <mxPoint x="580" y="280" />
              <mxPoint x="580" y="400" />
            </Array>
          </mxGeometry>
        </mxCell>
        <mxCell id="uuBq5lwNjAVm_NzWjJLm-67" value="" style="rhombus;whiteSpace=wrap;html=1;" vertex="1" parent="1">
          <mxGeometry x="649" y="127" width="30" height="25" as="geometry" />
        </mxCell>
      </root>
    </mxGraphModel>
  </diagram>
</mxfile>
